<svg width="1300" height="985" xmlns="http://www.w3.org/2000/svg" xmlns:xlink="http://www.w3.org/1999/xlink" xml:space="preserve" overflow="hidden"><defs><filter id="fx0" x="-10%" y="-10%" width="120%" height="120%" filterUnits="userSpaceOnUse" primitiveUnits="userSpaceOnUse"><feComponentTransfer color-interpolation-filters="sRGB"><feFuncR type="discrete" tableValues="0 0"/><feFuncG type="discrete" tableValues="0 0"/><feFuncB type="discrete" tableValues="0 0"/><feFuncA type="linear" slope="0.4" intercept="0"/></feComponentTransfer><feGaussianBlur stdDeviation="6.11111 6.11111"/></filter><clipPath id="clip1"><rect x="2860" y="998" width="1300" height="985"/></clipPath><linearGradient x1="3511" y1="1166" x2="3511" y2="1978" gradientUnits="userSpaceOnUse" spreadMethod="reflect" id="fill2"><stop offset="0" stop-color="#47AADF"/><stop offset="0.5" stop-color="#05A2DF"/><stop offset="1" stop-color="#0094CE"/></linearGradient><linearGradient x1="3510" y1="1194" x2="3510" y2="998" gradientUnits="userSpaceOnUse" spreadMethod="reflect" id="fill3"><stop offset="0" stop-color="#135574"/><stop offset="0.26" stop-color="#2090C2"/><stop offset="0.52" stop-color="#47B1E1"/><stop offset="0.75" stop-color="#8CCEEC"/><stop offset="0.97" stop-color="#BAE2F4"/><stop offset="1" stop-color="#BAE2F4"/></linearGradient><linearGradient x1="3510" y1="1194" x2="3510" y2="998" gradientUnits="userSpaceOnUse" spreadMethod="reflect" id="fill4"><stop offset="0" stop-color="#135574"/><stop offset="0.26" stop-color="#2090C2"/><stop offset="0.52" stop-color="#47B1E1"/><stop offset="0.75" stop-color="#8CCEEC"/><stop offset="0.97" stop-color="#BAE2F4"/><stop offset="1" stop-color="#BAE2F4"/></linearGradient><linearGradient x1="3510" y1="1194" x2="3510" y2="998" gradientUnits="userSpaceOnUse" spreadMethod="reflect" id="fill5"><stop offset="0" stop-color="#135574"/><stop offset="0.26" stop-color="#2090C2"/><stop offset="0.52" stop-color="#47B1E1"/><stop offset="0.75" stop-color="#8CCEEC"/><stop offset="0.97" stop-color="#BAE2F4"/><stop offset="1" stop-color="#BAE2F4"/></linearGradient><linearGradient x1="3510" y1="1194" x2="3510" y2="998" gradientUnits="userSpaceOnUse" spreadMethod="reflect" id="fill6"><stop offset="0" stop-color="#135574"/><stop offset="0.26" stop-color="#2090C2"/><stop offset="0.52" stop-color="#47B1E1"/><stop offset="0.75" stop-color="#8CCEEC"/><stop offset="0.97" stop-color="#BAE2F4"/><stop offset="1" stop-color="#BAE2F4"/></linearGradient><linearGradient x1="3510" y1="1194" x2="3510" y2="998" gradientUnits="userSpaceOnUse" spreadMethod="reflect" id="fill7"><stop offset="0" stop-color="#135574"/><stop offset="0.26" stop-color="#2090C2"/><stop offset="0.52" stop-color="#47B1E1"/><stop offset="0.75" stop-color="#8CCEEC"/><stop offset="0.97" stop-color="#BAE2F4"/><stop offset="1" stop-color="#BAE2F4"/></linearGradient><clipPath id="clip8"><rect x="3016" y="1767" width="268" height="154"/></clipPath><clipPath id="clip9"><rect x="3016" y="1767" width="268" height="154"/></clipPath><clipPath id="clip10"><rect x="3758" y="1768" width="268" height="154"/></clipPath><clipPath id="clip11"><rect x="3758" y="1768" width="268" height="154"/></clipPath></defs><g clip-path="url(#clip1)" transform="translate(-2860 -998)"><g filter="url(#fx0)" transform="translate(2969 1132)"><g><path d="M375.807 20.25 708.191 20.25C715.922 20.25 722.189 27.3492 722.189 36.1062L722.189 67.8182 951.519 67.8182C1013.64 67.8182 1064 124.861 1064 195.226L1064 785.795C1064 811.452 1045.64 832.25 1022.99 832.25L61.0119 832.25C38.3615 832.25 20 811.452 20 785.795L20 195.226C20 124.861 70.3596 67.8182 132.481 67.8182L361.809 67.8182 361.809 36.1062C361.809 27.3492 368.076 20.25 375.807 20.25Z" fill="#FF0000" fill-rule="evenodd"/></g></g><path d="M3344.81 1166 3677.19 1166C3684.92 1166 3691.19 1173.1 3691.19 1181.86L3691.19 1213.57 3920.52 1213.57C3982.64 1213.57 4033 1270.61 4033 1340.98L4033 1931.55C4033 1957.2 4014.64 1978 3991.99 1978L3030.01 1978C3007.36 1978 2989 1957.2 2989 1931.55L2989 1340.98C2989 1270.61 3039.36 1213.57 3101.48 1213.57L3330.81 1213.57 3330.81 1181.86C3330.81 1173.1 3337.08 1166 3344.81 1166Z" fill="url(#fill2)" fill-rule="evenodd"/><g><g><g><path d="M30.6104 36.1563 47.298 36.1563 47.298 119.594 30.6104 119.594Z" fill="#048EC4" transform="matrix(1 0 0 1.13483 3016 1520)"/><path d="M102.923 52.8438C105.995 52.8438 108.485 55.3341 108.485 58.4063L108.485 97.3438C108.485 100.416 105.995 102.906 102.923 102.906L86.2355 102.906C83.1633 102.906 80.673 100.416 80.673 97.3438L80.673 58.4063C80.673 55.3341 83.1633 52.8438 86.2355 52.8438L102.923 52.8438M102.923 36.1563 86.2355 36.1563C73.9471 36.1563 63.9855 46.1179 63.9855 58.4063L63.9855 97.3438C63.9855 109.632 73.9471 119.594 86.2355 119.594L102.923 119.594C115.211 119.594 125.173 109.632 125.173 97.3438L125.173 58.4063C125.173 46.1179 115.211 36.1563 102.923 36.1563Z" fill="#048EC4" transform="matrix(1 0 0 1.13483 3016 1520)"/><path d="M141.86 36.1563 158.548 36.1563 158.548 119.594 141.86 119.594Z" fill="#048EC4" transform="matrix(1 0 0 1.13483 3016 1520)"/><path d="M214.173 52.8438C217.245 52.8438 219.736 55.3341 219.736 58.4063L219.736 97.3438C219.736 100.416 217.245 102.906 214.173 102.906L197.485 102.906C194.413 102.906 191.923 100.416 191.923 97.3438L191.923 58.4063C191.923 55.3341 194.413 52.8438 197.485 52.8438L214.173 52.8438M214.173 36.1563 197.485 36.1563C185.197 36.1563 175.236 46.1179 175.236 58.4063L175.236 97.3438C175.236 109.632 185.197 119.594 197.485 119.594L214.173 119.594C226.461 119.594 236.423 109.632 236.423 97.3438L236.423 58.4063C236.423 46.1179 226.461 36.1563 214.173 36.1563Z" fill="#048EC4" transform="matrix(1 0 0 1.13483 3016 1520)"/><path d="M30.6104 147.406 47.298 147.406 47.298 230.844 30.6104 230.844Z" fill="#048EC4" transform="matrix(1 0 0 1.13483 3016 1520)"/><path d="M102.923 164.094C105.995 164.094 108.485 166.584 108.485 169.656L108.485 208.594C108.485 211.666 105.995 214.156 102.923 214.156L86.2355 214.156C83.1633 214.156 80.673 211.666 80.673 208.594L80.673 169.656C80.673 166.584 83.1633 164.094 86.2355 164.094L102.923 164.094M102.923 147.406 86.2355 147.406C73.9471 147.406 63.9855 157.368 63.9855 169.656L63.9855 208.594C63.9855 220.882 73.9471 230.844 86.2355 230.844L102.923 230.844C115.211 230.844 125.173 220.882 125.173 208.594L125.173 169.656C125.173 157.368 115.211 147.406 102.923 147.406Z" fill="#048EC4" transform="matrix(1 0 0 1.13483 3016 1520)"/><path d="M141.86 147.406 158.548 147.406 158.548 230.844 141.86 230.844Z" fill="#048EC4" transform="matrix(1 0 0 1.13483 3016 1520)"/><path d="M214.173 164.094C217.245 164.094 219.736 166.584 219.736 169.656L219.736 208.594C219.736 211.666 217.245 214.156 214.173 214.156L197.485 214.156C194.413 214.156 191.923 211.666 191.923 208.594L191.923 169.656C191.923 166.584 194.413 164.094 197.485 164.094L214.173 164.094M214.173 147.406 197.485 147.406C185.197 147.406 175.236 157.368 175.236 169.656L175.236 208.594C175.236 220.882 185.197 230.844 197.485 230.844L214.173 230.844C226.461 230.844 236.423 220.882 236.423 208.594L236.423 169.656C236.423 157.368 226.461 147.406 214.173 147.406Z" fill="#048EC4" transform="matrix(1 0 0 1.13483 3016 1520)"/></g></g></g><g><g><g><path d="M30.6104 36.1563 47.298 36.1563 47.298 119.594 30.6104 119.594Z" fill="#048EC4" transform="matrix(1 0 0 1.13483 3016 1271)"/><path d="M102.923 52.8438C105.995 52.8438 108.485 55.3341 108.485 58.4063L108.485 97.3438C108.485 100.416 105.995 102.906 102.923 102.906L86.2355 102.906C83.1633 102.906 80.673 100.416 80.673 97.3438L80.673 58.4063C80.673 55.3341 83.1633 52.8438 86.2355 52.8438L102.923 52.8438M102.923 36.1563 86.2355 36.1563C73.9471 36.1563 63.9855 46.1179 63.9855 58.4063L63.9855 97.3438C63.9855 109.632 73.9471 119.594 86.2355 119.594L102.923 119.594C115.211 119.594 125.173 109.632 125.173 97.3438L125.173 58.4063C125.173 46.1179 115.211 36.1563 102.923 36.1563Z" fill="#048EC4" transform="matrix(1 0 0 1.13483 3016 1271)"/><path d="M141.86 36.1563 158.548 36.1563 158.548 119.594 141.86 119.594Z" fill="#048EC4" transform="matrix(1 0 0 1.13483 3016 1271)"/><path d="M214.173 52.8438C217.245 52.8438 219.736 55.3341 219.736 58.4063L219.736 97.3438C219.736 100.416 217.245 102.906 214.173 102.906L197.485 102.906C194.413 102.906 191.923 100.416 191.923 97.3438L191.923 58.4063C191.923 55.3341 194.413 52.8438 197.485 52.8438L214.173 52.8438M214.173 36.1563 197.485 36.1563C185.197 36.1563 175.236 46.1179 175.236 58.4063L175.236 97.3438C175.236 109.632 185.197 119.594 197.485 119.594L214.173 119.594C226.461 119.594 236.423 109.632 236.423 97.3438L236.423 58.4063C236.423 46.1179 226.461 36.1563 214.173 36.1563Z" fill="#048EC4" transform="matrix(1 0 0 1.13483 3016 1271)"/><path d="M30.6104 147.406 47.298 147.406 47.298 230.844 30.6104 230.844Z" fill="#048EC4" transform="matrix(1 0 0 1.13483 3016 1271)"/><path d="M102.923 164.094C105.995 164.094 108.485 166.584 108.485 169.656L108.485 208.594C108.485 211.666 105.995 214.156 102.923 214.156L86.2355 214.156C83.1633 214.156 80.673 211.666 80.673 208.594L80.673 169.656C80.673 166.584 83.1633 164.094 86.2355 164.094L102.923 164.094M102.923 147.406 86.2355 147.406C73.9471 147.406 63.9855 157.368 63.9855 169.656L63.9855 208.594C63.9855 220.882 73.9471 230.844 86.2355 230.844L102.923 230.844C115.211 230.844 125.173 220.882 125.173 208.594L125.173 169.656C125.173 157.368 115.211 147.406 102.923 147.406Z" fill="#048EC4" transform="matrix(1 0 0 1.13483 3016 1271)"/><path d="M141.86 147.406 158.548 147.406 158.548 230.844 141.86 230.844Z" fill="#048EC4" transform="matrix(1 0 0 1.13483 3016 1271)"/><path d="M214.173 164.094C217.245 164.094 219.736 166.584 219.736 169.656L219.736 208.594C219.736 211.666 217.245 214.156 214.173 214.156L197.485 214.156C194.413 214.156 191.923 211.666 191.923 208.594L191.923 169.656C191.923 166.584 194.413 164.094 197.485 164.094L214.173 164.094M214.173 147.406 197.485 147.406C185.197 147.406 175.236 157.368 175.236 169.656L175.236 208.594C175.236 220.882 185.197 230.844 197.485 230.844L214.173 230.844C226.461 230.844 236.423 220.882 236.423 208.594L236.423 169.656C236.423 157.368 226.461 147.406 214.173 147.406Z" fill="#048EC4" transform="matrix(1 0 0 1.13483 3016 1271)"/></g></g></g><g><g><g><path d="M30.6104 36.1563 47.298 36.1563 47.298 119.594 30.6104 119.594Z" fill="#048EC4" transform="matrix(1 0 0 1.13483 3265 1269)"/><path d="M102.923 52.8438C105.995 52.8438 108.485 55.3341 108.485 58.4063L108.485 97.3438C108.485 100.416 105.995 102.906 102.923 102.906L86.2355 102.906C83.1633 102.906 80.673 100.416 80.673 97.3438L80.673 58.4063C80.673 55.3341 83.1633 52.8438 86.2355 52.8438L102.923 52.8438M102.923 36.1563 86.2355 36.1563C73.9471 36.1563 63.9855 46.1179 63.9855 58.4063L63.9855 97.3438C63.9855 109.632 73.9471 119.594 86.2355 119.594L102.923 119.594C115.211 119.594 125.173 109.632 125.173 97.3438L125.173 58.4063C125.173 46.1179 115.211 36.1563 102.923 36.1563Z" fill="#048EC4" transform="matrix(1 0 0 1.13483 3265 1269)"/><path d="M141.86 36.1563 158.548 36.1563 158.548 119.594 141.86 119.594Z" fill="#048EC4" transform="matrix(1 0 0 1.13483 3265 1269)"/><path d="M214.173 52.8438C217.245 52.8438 219.736 55.3341 219.736 58.4063L219.736 97.3438C219.736 100.416 217.245 102.906 214.173 102.906L197.485 102.906C194.413 102.906 191.923 100.416 191.923 97.3438L191.923 58.4063C191.923 55.3341 194.413 52.8438 197.485 52.8438L214.173 52.8438M214.173 36.1563 197.485 36.1563C185.197 36.1563 175.236 46.1179 175.236 58.4063L175.236 97.3438C175.236 109.632 185.197 119.594 197.485 119.594L214.173 119.594C226.461 119.594 236.423 109.632 236.423 97.3438L236.423 58.4063C236.423 46.1179 226.461 36.1563 214.173 36.1563Z" fill="#048EC4" transform="matrix(1 0 0 1.13483 3265 1269)"/><path d="M30.6104 147.406 47.298 147.406 47.298 230.844 30.6104 230.844Z" fill="#048EC4" transform="matrix(1 0 0 1.13483 3265 1269)"/><path d="M102.923 164.094C105.995 164.094 108.485 166.584 108.485 169.656L108.485 208.594C108.485 211.666 105.995 214.156 102.923 214.156L86.2355 214.156C83.1633 214.156 80.673 211.666 80.673 208.594L80.673 169.656C80.673 166.584 83.1633 164.094 86.2355 164.094L102.923 164.094M102.923 147.406 86.2355 147.406C73.9471 147.406 63.9855 157.368 63.9855 169.656L63.9855 208.594C63.9855 220.882 73.9471 230.844 86.2355 230.844L102.923 230.844C115.211 230.844 125.173 220.882 125.173 208.594L125.173 169.656C125.173 157.368 115.211 147.406 102.923 147.406Z" fill="#048EC4" transform="matrix(1 0 0 1.13483 3265 1269)"/><path d="M141.86 147.406 158.548 147.406 158.548 230.844 141.86 230.844Z" fill="#048EC4" transform="matrix(1 0 0 1.13483 3265 1269)"/><path d="M214.173 164.094C217.245 164.094 219.736 166.584 219.736 169.656L219.736 208.594C219.736 211.666 217.245 214.156 214.173 214.156L197.485 214.156C194.413 214.156 191.923 211.666 191.923 208.594L191.923 169.656C191.923 166.584 194.413 164.094 197.485 164.094L214.173 164.094M214.173 147.406 197.485 147.406C185.197 147.406 175.236 157.368 175.236 169.656L175.236 208.594C175.236 220.882 185.197 230.844 197.485 230.844L214.173 230.844C226.461 230.844 236.423 220.882 236.423 208.594L236.423 169.656C236.423 157.368 226.461 147.406 214.173 147.406Z" fill="#048EC4" transform="matrix(1 0 0 1.13483 3265 1269)"/></g></g></g><g><g><g><path d="M30.6104 36.1563 47.298 36.1563 47.298 119.594 30.6104 119.594Z" fill="#048EC4" transform="matrix(1 0 0 1.13483 3265 1520)"/><path d="M102.923 52.8438C105.995 52.8438 108.485 55.3341 108.485 58.4063L108.485 97.3438C108.485 100.416 105.995 102.906 102.923 102.906L86.2355 102.906C83.1633 102.906 80.673 100.416 80.673 97.3438L80.673 58.4063C80.673 55.3341 83.1633 52.8438 86.2355 52.8438L102.923 52.8438M102.923 36.1563 86.2355 36.1563C73.9471 36.1563 63.9855 46.1179 63.9855 58.4063L63.9855 97.3438C63.9855 109.632 73.9471 119.594 86.2355 119.594L102.923 119.594C115.211 119.594 125.173 109.632 125.173 97.3438L125.173 58.4063C125.173 46.1179 115.211 36.1563 102.923 36.1563Z" fill="#048EC4" transform="matrix(1 0 0 1.13483 3265 1520)"/><path d="M141.86 36.1563 158.548 36.1563 158.548 119.594 141.86 119.594Z" fill="#048EC4" transform="matrix(1 0 0 1.13483 3265 1520)"/><path d="M214.173 52.8438C217.245 52.8438 219.736 55.3341 219.736 58.4063L219.736 97.3438C219.736 100.416 217.245 102.906 214.173 102.906L197.485 102.906C194.413 102.906 191.923 100.416 191.923 97.3438L191.923 58.4063C191.923 55.3341 194.413 52.8438 197.485 52.8438L214.173 52.8438M214.173 36.1563 197.485 36.1563C185.197 36.1563 175.236 46.1179 175.236 58.4063L175.236 97.3438C175.236 109.632 185.197 119.594 197.485 119.594L214.173 119.594C226.461 119.594 236.423 109.632 236.423 97.3438L236.423 58.4063C236.423 46.1179 226.461 36.1563 214.173 36.1563Z" fill="#048EC4" transform="matrix(1 0 0 1.13483 3265 1520)"/><path d="M30.6104 147.406 47.298 147.406 47.298 230.844 30.6104 230.844Z" fill="#048EC4" transform="matrix(1 0 0 1.13483 3265 1520)"/><path d="M102.923 164.094C105.995 164.094 108.485 166.584 108.485 169.656L108.485 208.594C108.485 211.666 105.995 214.156 102.923 214.156L86.2355 214.156C83.1633 214.156 80.673 211.666 80.673 208.594L80.673 169.656C80.673 166.584 83.1633 164.094 86.2355 164.094L102.923 164.094M102.923 147.406 86.2355 147.406C73.9471 147.406 63.9855 157.368 63.9855 169.656L63.9855 208.594C63.9855 220.882 73.9471 230.844 86.2355 230.844L102.923 230.844C115.211 230.844 125.173 220.882 125.173 208.594L125.173 169.656C125.173 157.368 115.211 147.406 102.923 147.406Z" fill="#048EC4" transform="matrix(1 0 0 1.13483 3265 1520)"/><path d="M141.86 147.406 158.548 147.406 158.548 230.844 141.86 230.844Z" fill="#048EC4" transform="matrix(1 0 0 1.13483 3265 1520)"/><path d="M214.173 164.094C217.245 164.094 219.736 166.584 219.736 169.656L219.736 208.594C219.736 211.666 217.245 214.156 214.173 214.156L197.485 214.156C194.413 214.156 191.923 211.666 191.923 208.594L191.923 169.656C191.923 166.584 194.413 164.094 197.485 164.094L214.173 164.094M214.173 147.406 197.485 147.406C185.197 147.406 175.236 157.368 175.236 169.656L175.236 208.594C175.236 220.882 185.197 230.844 197.485 230.844L214.173 230.844C226.461 230.844 236.423 220.882 236.423 208.594L236.423 169.656C236.423 157.368 226.461 147.406 214.173 147.406Z" fill="#048EC4" transform="matrix(1 0 0 1.13483 3265 1520)"/></g></g></g><g><g><g><path d="M30.6104 36.1563 47.298 36.1563 47.298 119.594 30.6104 119.594Z" fill="#048EC4" transform="matrix(1 0 0 1.13483 3511 1520)"/><path d="M102.923 52.8438C105.995 52.8438 108.485 55.3341 108.485 58.4063L108.485 97.3438C108.485 100.416 105.995 102.906 102.923 102.906L86.2355 102.906C83.1633 102.906 80.673 100.416 80.673 97.3438L80.673 58.4063C80.673 55.3341 83.1633 52.8438 86.2355 52.8438L102.923 52.8438M102.923 36.1563 86.2355 36.1563C73.9471 36.1563 63.9855 46.1179 63.9855 58.4063L63.9855 97.3438C63.9855 109.632 73.9471 119.594 86.2355 119.594L102.923 119.594C115.211 119.594 125.173 109.632 125.173 97.3438L125.173 58.4063C125.173 46.1179 115.211 36.1563 102.923 36.1563Z" fill="#048EC4" transform="matrix(1 0 0 1.13483 3511 1520)"/><path d="M141.86 36.1563 158.548 36.1563 158.548 119.594 141.86 119.594Z" fill="#048EC4" transform="matrix(1 0 0 1.13483 3511 1520)"/><path d="M214.173 52.8438C217.245 52.8438 219.736 55.3341 219.736 58.4063L219.736 97.3438C219.736 100.416 217.245 102.906 214.173 102.906L197.485 102.906C194.413 102.906 191.923 100.416 191.923 97.3438L191.923 58.4063C191.923 55.3341 194.413 52.8438 197.485 52.8438L214.173 52.8438M214.173 36.1563 197.485 36.1563C185.197 36.1563 175.236 46.1179 175.236 58.4063L175.236 97.3438C175.236 109.632 185.197 119.594 197.485 119.594L214.173 119.594C226.461 119.594 236.423 109.632 236.423 97.3438L236.423 58.4063C236.423 46.1179 226.461 36.1563 214.173 36.1563Z" fill="#048EC4" transform="matrix(1 0 0 1.13483 3511 1520)"/><path d="M30.6104 147.406 47.298 147.406 47.298 230.844 30.6104 230.844Z" fill="#048EC4" transform="matrix(1 0 0 1.13483 3511 1520)"/><path d="M102.923 164.094C105.995 164.094 108.485 166.584 108.485 169.656L108.485 208.594C108.485 211.666 105.995 214.156 102.923 214.156L86.2355 214.156C83.1633 214.156 80.673 211.666 80.673 208.594L80.673 169.656C80.673 166.584 83.1633 164.094 86.2355 164.094L102.923 164.094M102.923 147.406 86.2355 147.406C73.9471 147.406 63.9855 157.368 63.9855 169.656L63.9855 208.594C63.9855 220.882 73.9471 230.844 86.2355 230.844L102.923 230.844C115.211 230.844 125.173 220.882 125.173 208.594L125.173 169.656C125.173 157.368 115.211 147.406 102.923 147.406Z" fill="#048EC4" transform="matrix(1 0 0 1.13483 3511 1520)"/><path d="M141.86 147.406 158.548 147.406 158.548 230.844 141.86 230.844Z" fill="#048EC4" transform="matrix(1 0 0 1.13483 3511 1520)"/><path d="M214.173 164.094C217.245 164.094 219.736 166.584 219.736 169.656L219.736 208.594C219.736 211.666 217.245 214.156 214.173 214.156L197.485 214.156C194.413 214.156 191.923 211.666 191.923 208.594L191.923 169.656C191.923 166.584 194.413 164.094 197.485 164.094L214.173 164.094M214.173 147.406 197.485 147.406C185.197 147.406 175.236 157.368 175.236 169.656L175.236 208.594C175.236 220.882 185.197 230.844 197.485 230.844L214.173 230.844C226.461 230.844 236.423 220.882 236.423 208.594L236.423 169.656C236.423 157.368 226.461 147.406 214.173 147.406Z" fill="#048EC4" transform="matrix(1 0 0 1.13483 3511 1520)"/></g></g></g><g><g><g><path d="M30.6104 36.1563 47.298 36.1563 47.298 119.594 30.6104 119.594Z" fill="#048EC4" transform="matrix(1 0 0 1.13483 3511 1271)"/><path d="M102.923 52.8438C105.995 52.8438 108.485 55.3341 108.485 58.4063L108.485 97.3438C108.485 100.416 105.995 102.906 102.923 102.906L86.2355 102.906C83.1633 102.906 80.673 100.416 80.673 97.3438L80.673 58.4063C80.673 55.3341 83.1633 52.8438 86.2355 52.8438L102.923 52.8438M102.923 36.1563 86.2355 36.1563C73.9471 36.1563 63.9855 46.1179 63.9855 58.4063L63.9855 97.3438C63.9855 109.632 73.9471 119.594 86.2355 119.594L102.923 119.594C115.211 119.594 125.173 109.632 125.173 97.3438L125.173 58.4063C125.173 46.1179 115.211 36.1563 102.923 36.1563Z" fill="#048EC4" transform="matrix(1 0 0 1.13483 3511 1271)"/><path d="M141.86 36.1563 158.548 36.1563 158.548 119.594 141.86 119.594Z" fill="#048EC4" transform="matrix(1 0 0 1.13483 3511 1271)"/><path d="M214.173 52.8438C217.245 52.8438 219.736 55.3341 219.736 58.4063L219.736 97.3438C219.736 100.416 217.245 102.906 214.173 102.906L197.485 102.906C194.413 102.906 191.923 100.416 191.923 97.3438L191.923 58.4063C191.923 55.3341 194.413 52.8438 197.485 52.8438L214.173 52.8438M214.173 36.1563 197.485 36.1563C185.197 36.1563 175.236 46.1179 175.236 58.4063L175.236 97.3438C175.236 109.632 185.197 119.594 197.485 119.594L214.173 119.594C226.461 119.594 236.423 109.632 236.423 97.3438L236.423 58.4063C236.423 46.1179 226.461 36.1563 214.173 36.1563Z" fill="#048EC4" transform="matrix(1 0 0 1.13483 3511 1271)"/><path d="M30.6104 147.406 47.298 147.406 47.298 230.844 30.6104 230.844Z" fill="#048EC4" transform="matrix(1 0 0 1.13483 3511 1271)"/><path d="M102.923 164.094C105.995 164.094 108.485 166.584 108.485 169.656L108.485 208.594C108.485 211.666 105.995 214.156 102.923 214.156L86.2355 214.156C83.1633 214.156 80.673 211.666 80.673 208.594L80.673 169.656C80.673 166.584 83.1633 164.094 86.2355 164.094L102.923 164.094M102.923 147.406 86.2355 147.406C73.9471 147.406 63.9855 157.368 63.9855 169.656L63.9855 208.594C63.9855 220.882 73.9471 230.844 86.2355 230.844L102.923 230.844C115.211 230.844 125.173 220.882 125.173 208.594L125.173 169.656C125.173 157.368 115.211 147.406 102.923 147.406Z" fill="#048EC4" transform="matrix(1 0 0 1.13483 3511 1271)"/><path d="M141.86 147.406 158.548 147.406 158.548 230.844 141.86 230.844Z" fill="#048EC4" transform="matrix(1 0 0 1.13483 3511 1271)"/><path d="M214.173 164.094C217.245 164.094 219.736 166.584 219.736 169.656L219.736 208.594C219.736 211.666 217.245 214.156 214.173 214.156L197.485 214.156C194.413 214.156 191.923 211.666 191.923 208.594L191.923 169.656C191.923 166.584 194.413 164.094 197.485 164.094L214.173 164.094M214.173 147.406 197.485 147.406C185.197 147.406 175.236 157.368 175.236 169.656L175.236 208.594C175.236 220.882 185.197 230.844 197.485 230.844L214.173 230.844C226.461 230.844 236.423 220.882 236.423 208.594L236.423 169.656C236.423 157.368 226.461 147.406 214.173 147.406Z" fill="#048EC4" transform="matrix(1 0 0 1.13483 3511 1271)"/></g></g></g><g><g><g><path d="M30.6104 36.1563 47.298 36.1563 47.298 119.594 30.6104 119.594Z" fill="#048EC4" transform="matrix(1 0 0 1.13483 3759 1269)"/><path d="M102.923 52.8438C105.995 52.8438 108.485 55.3341 108.485 58.4063L108.485 97.3438C108.485 100.416 105.995 102.906 102.923 102.906L86.2355 102.906C83.1633 102.906 80.673 100.416 80.673 97.3438L80.673 58.4063C80.673 55.3341 83.1633 52.8438 86.2355 52.8438L102.923 52.8438M102.923 36.1563 86.2355 36.1563C73.9471 36.1563 63.9855 46.1179 63.9855 58.4063L63.9855 97.3438C63.9855 109.632 73.9471 119.594 86.2355 119.594L102.923 119.594C115.211 119.594 125.173 109.632 125.173 97.3438L125.173 58.4063C125.173 46.1179 115.211 36.1563 102.923 36.1563Z" fill="#048EC4" transform="matrix(1 0 0 1.13483 3759 1269)"/><path d="M141.86 36.1563 158.548 36.1563 158.548 119.594 141.86 119.594Z" fill="#048EC4" transform="matrix(1 0 0 1.13483 3759 1269)"/><path d="M214.173 52.8438C217.245 52.8438 219.736 55.3341 219.736 58.4063L219.736 97.3438C219.736 100.416 217.245 102.906 214.173 102.906L197.485 102.906C194.413 102.906 191.923 100.416 191.923 97.3438L191.923 58.4063C191.923 55.3341 194.413 52.8438 197.485 52.8438L214.173 52.8438M214.173 36.1563 197.485 36.1563C185.197 36.1563 175.236 46.1179 175.236 58.4063L175.236 97.3438C175.236 109.632 185.197 119.594 197.485 119.594L214.173 119.594C226.461 119.594 236.423 109.632 236.423 97.3438L236.423 58.4063C236.423 46.1179 226.461 36.1563 214.173 36.1563Z" fill="#048EC4" transform="matrix(1 0 0 1.13483 3759 1269)"/><path d="M30.6104 147.406 47.298 147.406 47.298 230.844 30.6104 230.844Z" fill="#048EC4" transform="matrix(1 0 0 1.13483 3759 1269)"/><path d="M102.923 164.094C105.995 164.094 108.485 166.584 108.485 169.656L108.485 208.594C108.485 211.666 105.995 214.156 102.923 214.156L86.2355 214.156C83.1633 214.156 80.673 211.666 80.673 208.594L80.673 169.656C80.673 166.584 83.1633 164.094 86.2355 164.094L102.923 164.094M102.923 147.406 86.2355 147.406C73.9471 147.406 63.9855 157.368 63.9855 169.656L63.9855 208.594C63.9855 220.882 73.9471 230.844 86.2355 230.844L102.923 230.844C115.211 230.844 125.173 220.882 125.173 208.594L125.173 169.656C125.173 157.368 115.211 147.406 102.923 147.406Z" fill="#048EC4" transform="matrix(1 0 0 1.13483 3759 1269)"/><path d="M141.86 147.406 158.548 147.406 158.548 230.844 141.86 230.844Z" fill="#048EC4" transform="matrix(1 0 0 1.13483 3759 1269)"/><path d="M214.173 164.094C217.245 164.094 219.736 166.584 219.736 169.656L219.736 208.594C219.736 211.666 217.245 214.156 214.173 214.156L197.485 214.156C194.413 214.156 191.923 211.666 191.923 208.594L191.923 169.656C191.923 166.584 194.413 164.094 197.485 164.094L214.173 164.094M214.173 147.406 197.485 147.406C185.197 147.406 175.236 157.368 175.236 169.656L175.236 208.594C175.236 220.882 185.197 230.844 197.485 230.844L214.173 230.844C226.461 230.844 236.423 220.882 236.423 208.594L236.423 169.656C236.423 157.368 226.461 147.406 214.173 147.406Z" fill="#048EC4" transform="matrix(1 0 0 1.13483 3759 1269)"/></g></g></g><g><g><g><path d="M30.6104 36.1563 47.298 36.1563 47.298 119.594 30.6104 119.594Z" fill="#048EC4" transform="matrix(1 0 0 1.13483 3759 1520)"/><path d="M102.923 52.8438C105.995 52.8438 108.485 55.3341 108.485 58.4063L108.485 97.3438C108.485 100.416 105.995 102.906 102.923 102.906L86.2355 102.906C83.1633 102.906 80.673 100.416 80.673 97.3438L80.673 58.4063C80.673 55.3341 83.1633 52.8438 86.2355 52.8438L102.923 52.8438M102.923 36.1563 86.2355 36.1563C73.9471 36.1563 63.9855 46.1179 63.9855 58.4063L63.9855 97.3438C63.9855 109.632 73.9471 119.594 86.2355 119.594L102.923 119.594C115.211 119.594 125.173 109.632 125.173 97.3438L125.173 58.4063C125.173 46.1179 115.211 36.1563 102.923 36.1563Z" fill="#048EC4" transform="matrix(1 0 0 1.13483 3759 1520)"/><path d="M141.86 36.1563 158.548 36.1563 158.548 119.594 141.86 119.594Z" fill="#048EC4" transform="matrix(1 0 0 1.13483 3759 1520)"/><path d="M214.173 52.8438C217.245 52.8438 219.736 55.3341 219.736 58.4063L219.736 97.3438C219.736 100.416 217.245 102.906 214.173 102.906L197.485 102.906C194.413 102.906 191.923 100.416 191.923 97.3438L191.923 58.4063C191.923 55.3341 194.413 52.8438 197.485 52.8438L214.173 52.8438M214.173 36.1563 197.485 36.1563C185.197 36.1563 175.236 46.1179 175.236 58.4063L175.236 97.3438C175.236 109.632 185.197 119.594 197.485 119.594L214.173 119.594C226.461 119.594 236.423 109.632 236.423 97.3438L236.423 58.4063C236.423 46.1179 226.461 36.1563 214.173 36.1563Z" fill="#048EC4" transform="matrix(1 0 0 1.13483 3759 1520)"/><path d="M30.6104 147.406 47.298 147.406 47.298 230.844 30.6104 230.844Z" fill="#048EC4" transform="matrix(1 0 0 1.13483 3759 1520)"/><path d="M102.923 164.094C105.995 164.094 108.485 166.584 108.485 169.656L108.485 208.594C108.485 211.666 105.995 214.156 102.923 214.156L86.2355 214.156C83.1633 214.156 80.673 211.666 80.673 208.594L80.673 169.656C80.673 166.584 83.1633 164.094 86.2355 164.094L102.923 164.094M102.923 147.406 86.2355 147.406C73.9471 147.406 63.9855 157.368 63.9855 169.656L63.9855 208.594C63.9855 220.882 73.9471 230.844 86.2355 230.844L102.923 230.844C115.211 230.844 125.173 220.882 125.173 208.594L125.173 169.656C125.173 157.368 115.211 147.406 102.923 147.406Z" fill="#048EC4" transform="matrix(1 0 0 1.13483 3759 1520)"/><path d="M141.86 147.406 158.548 147.406 158.548 230.844 141.86 230.844Z" fill="#048EC4" transform="matrix(1 0 0 1.13483 3759 1520)"/><path d="M214.173 164.094C217.245 164.094 219.736 166.584 219.736 169.656L219.736 208.594C219.736 211.666 217.245 214.156 214.173 214.156L197.485 214.156C194.413 214.156 191.923 211.666 191.923 208.594L191.923 169.656C191.923 166.584 194.413 164.094 197.485 164.094L214.173 164.094M214.173 147.406 197.485 147.406C185.197 147.406 175.236 157.368 175.236 169.656L175.236 208.594C175.236 220.882 185.197 230.844 197.485 230.844L214.173 230.844C226.461 230.844 236.423 220.882 236.423 208.594L236.423 169.656C236.423 157.368 226.461 147.406 214.173 147.406Z" fill="#048EC4" transform="matrix(1 0 0 1.13483 3759 1520)"/></g></g></g><text fill="#FFFFFF" font-family="Segoe UI Black,Segoe UI Black_MSFontService,sans-serif" font-weight="900" font-size="183" transform="matrix(1 0 0 1 3067.52 1488)">I4.0 SMIA</text><rect x="3448" y="1142" width="124" height="51.9999" fill="url(#fill3)"/><rect x="3448" y="1089" width="124" height="34" fill="url(#fill4)"/><rect x="3448" y="1054" width="124" height="17.0002" fill="url(#fill5)"/><rect x="3448" y="1024" width="124" height="7.99988" fill="url(#fill6)"/><rect x="3448" y="998" width="124" height="5.00018" fill="url(#fill7)"/><g clip-path="url(#clip8)"><g clip-path="url(#clip9)"><g><path d="M30.6104 36.1563 47.298 36.1563 47.298 119.594 30.6104 119.594Z" fill="#048EC4" transform="matrix(1 0 0 1.1376 3016 1768)"/><path d="M102.923 52.8438C105.995 52.8438 108.485 55.3341 108.485 58.4063L108.485 97.3438C108.485 100.416 105.995 102.906 102.923 102.906L86.2355 102.906C83.1633 102.906 80.673 100.416 80.673 97.3438L80.673 58.4063C80.673 55.3341 83.1633 52.8438 86.2355 52.8438L102.923 52.8438M102.923 36.1563 86.2355 36.1563C73.9471 36.1563 63.9855 46.1179 63.9855 58.4063L63.9855 97.3438C63.9855 109.632 73.9471 119.594 86.2355 119.594L102.923 119.594C115.211 119.594 125.173 109.632 125.173 97.3438L125.173 58.4063C125.173 46.1179 115.211 36.1563 102.923 36.1563Z" fill="#048EC4" transform="matrix(1 0 0 1.1376 3016 1768)"/><path d="M141.86 36.1563 158.548 36.1563 158.548 119.594 141.86 119.594Z" fill="#048EC4" transform="matrix(1 0 0 1.1376 3016 1768)"/><path d="M214.173 52.8438C217.245 52.8438 219.736 55.3341 219.736 58.4063L219.736 97.3438C219.736 100.416 217.245 102.906 214.173 102.906L197.485 102.906C194.413 102.906 191.923 100.416 191.923 97.3438L191.923 58.4063C191.923 55.3341 194.413 52.8438 197.485 52.8438L214.173 52.8438M214.173 36.1563 197.485 36.1563C185.197 36.1563 175.236 46.1179 175.236 58.4063L175.236 97.3438C175.236 109.632 185.197 119.594 197.485 119.594L214.173 119.594C226.461 119.594 236.423 109.632 236.423 97.3438L236.423 58.4063C236.423 46.1179 226.461 36.1563 214.173 36.1563Z" fill="#048EC4" transform="matrix(1 0 0 1.1376 3016 1768)"/><path d="M30.6104 147.406 47.298 147.406 47.298 230.844 30.6104 230.844Z" fill="#048EC4" transform="matrix(1 0 0 1.1376 3016 1768)"/><path d="M102.923 164.094C105.995 164.094 108.485 166.584 108.485 169.656L108.485 208.594C108.485 211.666 105.995 214.156 102.923 214.156L86.2355 214.156C83.1633 214.156 80.673 211.666 80.673 208.594L80.673 169.656C80.673 166.584 83.1633 164.094 86.2355 164.094L102.923 164.094M102.923 147.406 86.2355 147.406C73.9471 147.406 63.9855 157.368 63.9855 169.656L63.9855 208.594C63.9855 220.882 73.9471 230.844 86.2355 230.844L102.923 230.844C115.211 230.844 125.173 220.882 125.173 208.594L125.173 169.656C125.173 157.368 115.211 147.406 102.923 147.406Z" fill="#048EC4" transform="matrix(1 0 0 1.1376 3016 1768)"/><path d="M141.86 147.406 158.548 147.406 158.548 230.844 141.86 230.844Z" fill="#048EC4" transform="matrix(1 0 0 1.1376 3016 1768)"/><path d="M214.173 164.094C217.245 164.094 219.736 166.584 219.736 169.656L219.736 208.594C219.736 211.666 217.245 214.156 214.173 214.156L197.485 214.156C194.413 214.156 191.923 211.666 191.923 208.594L191.923 169.656C191.923 166.584 194.413 164.094 197.485 164.094L214.173 164.094M214.173 147.406 197.485 147.406C185.197 147.406 175.236 157.368 175.236 169.656L175.236 208.594C175.236 220.882 185.197 230.844 197.485 230.844L214.173 230.844C226.461 230.844 236.423 220.882 236.423 208.594L236.423 169.656C236.423 157.368 226.461 147.406 214.173 147.406Z" fill="#048EC4" transform="matrix(1 0 0 1.1376 3016 1768)"/></g></g></g><g clip-path="url(#clip10)"><g clip-path="url(#clip11)"><g><path d="M30.6104 36.1563 47.298 36.1563 47.298 119.594 30.6104 119.594Z" fill="#048EC4" transform="matrix(1 0 0 1.1376 3759 1769)"/><path d="M102.923 52.8438C105.995 52.8438 108.485 55.3341 108.485 58.4063L108.485 97.3438C108.485 100.416 105.995 102.906 102.923 102.906L86.2355 102.906C83.1633 102.906 80.673 100.416 80.673 97.3438L80.673 58.4063C80.673 55.3341 83.1633 52.8438 86.2355 52.8438L102.923 52.8438M102.923 36.1563 86.2355 36.1563C73.9471 36.1563 63.9855 46.1179 63.9855 58.4063L63.9855 97.3438C63.9855 109.632 73.9471 119.594 86.2355 119.594L102.923 119.594C115.211 119.594 125.173 109.632 125.173 97.3438L125.173 58.4063C125.173 46.1179 115.211 36.1563 102.923 36.1563Z" fill="#048EC4" transform="matrix(1 0 0 1.1376 3759 1769)"/><path d="M141.86 36.1563 158.548 36.1563 158.548 119.594 141.86 119.594Z" fill="#048EC4" transform="matrix(1 0 0 1.1376 3759 1769)"/><path d="M214.173 52.8438C217.245 52.8438 219.736 55.3341 219.736 58.4063L219.736 97.3438C219.736 100.416 217.245 102.906 214.173 102.906L197.485 102.906C194.413 102.906 191.923 100.416 191.923 97.3438L191.923 58.4063C191.923 55.3341 194.413 52.8438 197.485 52.8438L214.173 52.8438M214.173 36.1563 197.485 36.1563C185.197 36.1563 175.236 46.1179 175.236 58.4063L175.236 97.3438C175.236 109.632 185.197 119.594 197.485 119.594L214.173 119.594C226.461 119.594 236.423 109.632 236.423 97.3438L236.423 58.4063C236.423 46.1179 226.461 36.1563 214.173 36.1563Z" fill="#048EC4" transform="matrix(1 0 0 1.1376 3759 1769)"/><path d="M30.6104 147.406 47.298 147.406 47.298 230.844 30.6104 230.844Z" fill="#048EC4" transform="matrix(1 0 0 1.1376 3759 1769)"/><path d="M102.923 164.094C105.995 164.094 108.485 166.584 108.485 169.656L108.485 208.594C108.485 211.666 105.995 214.156 102.923 214.156L86.2355 214.156C83.1633 214.156 80.673 211.666 80.673 208.594L80.673 169.656C80.673 166.584 83.1633 164.094 86.2355 164.094L102.923 164.094M102.923 147.406 86.2355 147.406C73.9471 147.406 63.9855 157.368 63.9855 169.656L63.9855 208.594C63.9855 220.882 73.9471 230.844 86.2355 230.844L102.923 230.844C115.211 230.844 125.173 220.882 125.173 208.594L125.173 169.656C125.173 157.368 115.211 147.406 102.923 147.406Z" fill="#048EC4" transform="matrix(1 0 0 1.1376 3759 1769)"/><path d="M141.86 147.406 158.548 147.406 158.548 230.844 141.86 230.844Z" fill="#048EC4" transform="matrix(1 0 0 1.1376 3759 1769)"/><path d="M214.173 164.094C217.245 164.094 219.736 166.584 219.736 169.656L219.736 208.594C219.736 211.666 217.245 214.156 214.173 214.156L197.485 214.156C194.413 214.156 191.923 211.666 191.923 208.594L191.923 169.656C191.923 166.584 194.413 164.094 197.485 164.094L214.173 164.094M214.173 147.406 197.485 147.406C185.197 147.406 175.236 157.368 175.236 169.656L175.236 208.594C175.236 220.882 185.197 230.844 197.485 230.844L214.173 230.844C226.461 230.844 236.423 220.882 236.423 208.594L236.423 169.656C236.423 157.368 226.461 147.406 214.173 147.406Z" fill="#048EC4" transform="matrix(1 0 0 1.1376 3759 1769)"/></g></g></g><path d="M3250.45 1606.5 3771.55 1606.5 3846.5 1681.45 3846.5 1979.5 3846.5 1979.5 3175.5 1979.5 3175.5 1979.5 3175.5 1681.45Z" stroke="#FFFFFF" stroke-width="6.875" stroke-miterlimit="8" fill="#FFFFFF" fill-rule="evenodd"/><path d="M3318.25 1665.5 3703.75 1665.5 3759.5 1721.25 3759.5 1968.5 3759.5 1968.5 3262.5 1968.5 3262.5 1968.5 3262.5 1721.25Z" stroke="#A6A6A6" stroke-width="6.875" stroke-miterlimit="8" fill="#D9D9D9" fill-rule="evenodd"/><g><g><g><path d="M284.981 117.059C284.885 115.639 283.851 114.459 282.456 114.177L249.088 107.379C248.051 107.158 246.973 107.482 246.228 108.237L242.037 112.429 180.654 51.6709C173.032 42.9802 159.979 41.6833 150.796 48.7041L84.2182 101.076C83.5017 101.044 82.7884 101 82.0625 101 50.701 101.037 25.2865 126.451 25.25 157.812L25.25 224.409C17.9072 225.919 12.6345 232.378 12.625 239.875L12.625 255.656 151.5 255.656 151.5 239.875C151.478 232.322 146.114 225.841 138.698 224.409L138.875 157.812 138.875 157.812C138.863 145.121 134.568 132.806 126.685 122.86L156.626 87.0367C161.361 88.7821 166.557 88.8212 171.318 87.1472L219.713 134.753 215.117 139.345C214.373 140.088 214.047 141.153 214.249 142.186L220.704 175.904C220.975 177.314 222.163 178.363 223.595 178.457L257.07 180.689 257.285 180.689C259.028 180.745 260.487 179.378 260.544 177.635 260.6 175.892 259.233 174.433 257.49 174.376L226.445 172.309 220.764 142.625 249.486 113.903 278.839 119.881 280.906 150.954C281.044 152.682 282.533 153.986 284.264 153.896 286.004 153.788 287.327 152.29 287.22 150.551 287.219 150.545 287.219 150.539 287.219 150.534ZM145.187 239.875 145.187 249.344 18.9375 249.344 18.9375 239.875C18.9375 234.645 23.1768 230.406 28.4062 230.406L135.719 230.406C140.948 230.406 145.187 234.645 145.187 239.875ZM132.562 157.812 132.386 224.094 31.5625 224.094 31.5625 157.812C31.6026 132.399 50.5107 110.969 75.7215 107.764L63.065 117.728C51.9455 127.042 50.4813 143.606 59.7951 154.726 64.7845 160.682 72.1553 164.124 79.9257 164.125 80.3076 164.125 80.6926 164.125 81.0777 164.097 88.4368 163.764 95.3196 160.361 100.053 154.716L122.56 127.787C129.049 136.453 132.557 146.986 132.562 157.812ZM95.2177 150.664C91.6429 154.98 86.4004 157.572 80.8 157.79 75.1989 158.099 69.737 155.976 65.8141 151.967 58.0201 144.181 58.0131 131.551 65.7989 123.757 66.1969 123.358 66.6117 122.977 67.0419 122.614L142.161 63.4816C142.195 63.4564 142.217 63.4816 142.211 63.51 141.151 71.4126 144.501 79.2613 150.941 83.9625ZM148.476 68.3391C147.341 59.6976 153.426 51.7719 162.067 50.6363 170.709 49.501 178.634 55.5856 179.77 64.2271 180.905 72.8686 174.82 80.7943 166.179 81.9299 164.814 82.1092 163.432 82.1092 162.067 81.9299 154.985 80.9928 149.413 75.4208 148.476 68.3391ZM186.263 66.0792 237.47 116.781 224.075 130.179 177.182 84.0635C182.767 79.9806 186.113 73.5141 186.219 66.5968 186.219 66.5022 186.219 66.2812 186.219 66.1108 186.219 66.054 186.219 66.0477 186.263 66.0792Z" transform="matrix(1 0 0 1 3376 1665)"/><path d="M77.7573 126.714C73.6716 129.978 73.0053 135.936 76.2692 140.022 79.533 144.108 85.4911 144.774 89.5772 141.51 89.8508 141.291 90.1125 141.057 90.3602 140.81L90.3602 140.81C94.0663 137.12 94.0799 131.125 90.3905 127.419 86.9774 123.99 81.5278 123.686 77.7542 126.714ZM85.8973 136.35 85.8973 136.35C84.6503 137.543 82.6846 137.543 81.4375 136.35 80.2047 135.117 80.2044 133.119 81.4369 131.886 82.6694 130.654 84.6676 130.653 85.9005 131.886 87.1333 133.118 87.1336 135.116 85.9011 136.349 85.9008 136.35 85.9008 136.35 85.9005 136.35Z" transform="matrix(1 0 0 1 3376 1665)"/><path d="M165.671 58.5389C161.398 57.6871 157.242 60.4608 156.391 64.7347 155.539 69.0085 158.312 73.1637 162.586 74.0156 166.86 74.8675 171.015 72.0938 171.867 67.8199 172.07 66.8017 172.07 65.7532 171.867 64.7347 171.244 61.6071 168.799 59.1623 165.671 58.5389ZM164.125 67.8593C163.253 67.8593 162.547 67.1527 162.547 66.2812 162.547 65.4098 163.253 64.7031 164.125 64.7031 164.996 64.7031 165.703 65.4098 165.703 66.2812 165.703 67.1527 164.996 67.8593 164.125 67.8593Z" transform="matrix(1 0 0 1 3376 1665)"/></g></g></g></g></svg>